# xmcd CD database file
#
# Track frame offsets:
#	150
#	15080
#	30907
#	40427
#	54822
#	68470
#	81447
#	98925
#	117295
#	131922
#	145420
#	164470
#	195220
#	205117
#	219595
#
# Disc length: 3121 seconds
#
# Revision: 0
# Processed by: cddbd v1.5.2PL0 Copyright (c) Steve Scherf et al.
# Submitted via: CDex 1.51
#
DISCID=c40c2f0f
DTITLE=traditional club bratislava - back again
DYEAR=1997
DGENRE=Jazz
TTITLE0=a.piron: high society
TTITLE1=e.kid.ory: savoy blues 
TTITLE2=h.carmichael: new orleans
TTITLE3=t.snyder: who is sorry now? 
TTITLE4=g.marks: all for me
TTITLE5=g.marainey: see see rider
TTITLE6=shelton - brooks: some of these days
TTITLE7=traditional: washington and lee
TTITLE8=kennedy - grosz - isle of capri
TTITLE9=traditional: storyville blues
TTITLE10=j.mc hugh :on the sunny side of the street
TTITLE11=barris - cliford - i surrender,dear
TTITLE12=r.tharpe - strange things
TTITLE13=d.ellington - solitude
TTITLE14=b.bernie :sweet georgia brown
EXTD=YEAR: 1997
EXTT0=
EXTT1=
EXTT2=
EXTT3=
EXTT4=
EXTT5=
EXTT6=
EXTT7=
EXTT8=
EXTT9=
EXTT10=
EXTT11=
EXTT12=
EXTT13=
EXTT14=
PLAYORDER=
